<?xml version="1.0" encoding="utf-8"?>
<!-- Generator: Adobe Illustrator 26.0.3, SVG Export Plug-In . SVG Version: 6.00 Build 0)  -->
<!DOCTYPE svg PUBLIC "-//W3C//DTD SVG 1.1//EN" "http://www.w3.org/Graphics/SVG/1.1/DTD/svg11.dtd" [
	<!ENTITY ns_extend "http://ns.adobe.com/Extensibility/1.0/">
	<!ENTITY ns_ai "http://ns.adobe.com/AdobeIllustrator/10.0/">
	<!ENTITY ns_graphs "http://ns.adobe.com/Graphs/1.0/">
	<!ENTITY ns_vars "http://ns.adobe.com/Variables/1.0/">
	<!ENTITY ns_imrep "http://ns.adobe.com/ImageReplacement/1.0/">
	<!ENTITY ns_sfw "http://ns.adobe.com/SaveForWeb/1.0/">
	<!ENTITY ns_custom "http://ns.adobe.com/GenericCustomNamespace/1.0/">
	<!ENTITY ns_adobe_xpath "http://ns.adobe.com/XPath/1.0/">
]>
<svg version="1.1" id="Layer_1" xmlns:x="&ns_extend;" xmlns:i="&ns_ai;" xmlns:graph="&ns_graphs;"
	 xmlns="http://www.w3.org/2000/svg" xmlns:xlink="http://www.w3.org/1999/xlink" x="0px" y="0px" viewBox="0 0 25 25.5399342"
	 style="enable-background:new 0 0 25 25.5399342;" xml:space="preserve">
<style type="text/css">
	.st0{fill:#3C3D3E;}
</style>
<metadata>
	<sfw  xmlns="&ns_sfw;">
		<slices></slices>
		<sliceSourceBounds  bottomLeftOrigin="true" height="25.5399342" width="25" x="18.7629128" y="20.9224167"></sliceSourceBounds>
	</sfw>
</metadata>
<polygon class="st0" points="4.0225158,25.4567909 17.2620239,0 21.128437,0.0035394 8.2806282,25.4567909 "/>
<path class="st0" d="M5.1049719,0.6100714C2.285562,0.6100714,0,3.47802,0,7.0158281s2.285562,6.4057808,5.1049719,6.4057808
	c2.8193855,0,5.1049471-2.8679733,5.1049471-6.4057808S7.9243574,0.6100714,5.1049719,0.6100714z M5.2030139,10.2762175
	c-1.1791534,0-2.135021-1.4597168-2.135021-3.2603893c0-1.8006487,0.9558675-3.2603893,2.135021-3.2603893
	c1.1791291,0,2.1350212,1.4597406,2.1350212,3.2603893C7.3380351,8.8165007,6.382143,10.2762175,5.2030139,10.2762175z"/>
<path class="st0" d="M19.895052,12.7283955c-2.8194084,0-5.1049709,2.8679495-5.1049709,6.4057579
	s2.2855625,6.4057808,5.1049709,6.4057808c2.8193855,0,5.104948-2.8679733,5.104948-6.4057808
	S22.7144375,12.7283955,19.895052,12.7283955z M19.9930954,22.3945427c-1.1791534,0-2.1350212-1.4597168-2.1350212-3.2603893
	c0-1.8006496,0.9558678-3.2603903,2.1350212-3.2603903c1.1791286,0,2.1350212,1.4597406,2.1350212,3.2603903
	C22.1281166,20.9348259,21.172224,22.3945427,19.9930954,22.3945427z"/>
</svg>
