<svg width="29" height="29" viewBox="0 0 29 29" fill="none" xmlns="http://www.w3.org/2000/svg">
<path fill-rule="evenodd" clip-rule="evenodd" d="M24.6427 27.9009L28.3214 24.2222C28.3214 24.2222 28.952 23.0661 28.1112 22.015C27.1652 21.0691 22.5406 18.6517 22.5406 18.6517C22.5406 18.6517 21.4896 18.021 20.2283 19.2823C18.967 20.6487 18.967 20.6487 18.967 20.6487C18.967 20.6487 18.3364 21.1742 17.4956 20.7538C14.2373 19.0721 10.0331 14.8679 8.24632 11.5045C7.82589 10.7688 8.45653 10.033 8.45653 10.033C8.45653 10.033 8.35142 10.1382 9.71779 8.87689C11.0842 7.51053 10.3484 6.56458 10.3484 6.56458C10.3484 6.56458 8.03611 1.83485 6.98505 0.994014C6.03911 0.048068 4.77785 0.678698 4.77785 0.678698L1.09917 4.46248C-3.10504 12.7658 16.2343 32.1051 24.6427 27.9009ZM18.2313 2.7808C17.916 2.67569 17.6007 2.25527 17.7058 1.83485C17.8109 1.51954 18.2313 1.20422 18.6517 1.30933C23.0661 2.46548 26.5346 6.03906 27.6908 10.3484C27.7959 10.7688 27.5857 11.1892 27.1652 11.2943C26.7448 11.3994 26.3244 11.1892 26.2193 10.7688C25.1682 6.8799 22.1202 3.83185 18.2313 2.7808ZM15.7088 12.2403C15.2884 12.1351 15.0781 11.7147 15.1833 11.2943C15.2884 10.8739 15.7088 10.6637 16.0241 10.7688C17.1802 11.0841 18.0211 11.9249 18.2313 12.976C18.3364 13.3964 18.1262 13.8168 17.7058 13.9219C17.2854 14.027 16.97 13.7117 16.8649 13.3964C16.6547 12.7658 16.2343 12.3454 15.7088 12.2403ZM16.8649 7.72074C16.4445 7.61563 16.2343 7.30032 16.3394 6.8799C16.4445 6.45948 16.8649 6.24927 17.2854 6.35437C19.913 7.09011 22.0151 9.19221 22.6457 11.8198C22.7508 12.2403 22.5406 12.5556 22.1202 12.6607C21.8049 12.7658 21.3845 12.5556 21.2793 12.1351C20.6487 10.033 18.967 8.35137 16.8649 7.72074Z" fill="black"/>
</svg>
